<?xml version="1.0" encoding="utf-8"?>
<!-- Generator: Adobe Illustrator 16.0.0, SVG Export Plug-In . SVG Version: 6.00 Build 0)  -->
<!DOCTYPE svg PUBLIC "-//W3C//DTD SVG 1.1//EN" "http://www.w3.org/Graphics/SVG/1.1/DTD/svg11.dtd">
<svg version="1.1" xmlns="http://www.w3.org/2000/svg" xmlns:xlink="http://www.w3.org/1999/xlink" x="0px" y="0px" width="3014px"
	 height="1080px" viewBox="0 0 3014 1080" enable-background="new 0 0 3014 1080" xml:space="preserve">
<g id="Layer_3">
</g>
<g id="Layer_5">
	<g>
		<defs>
			<rect id="SVGID_1_" x="-266.993" width="3467.986" height="1080"/>
		</defs>
		<clipPath id="SVGID_2_">
			<use xlink:href="#SVGID_1_"  overflow="visible"/>
		</clipPath>
		<linearGradient id="SVGID_3_" gradientUnits="userSpaceOnUse" x1="1466.9995" y1="0" x2="1466.9995" y2="1080.0005">
			<stop  offset="0" style="stop-color:#9DDCF8"/>
			<stop  offset="0.0579" style="stop-color:#A7DCE8"/>
			<stop  offset="0.2424" style="stop-color:#BEDDC0"/>
			<stop  offset="0.4215" style="stop-color:#CFDE9D"/>
			<stop  offset="0.5909" style="stop-color:#DCE081"/>
			<stop  offset="0.7484" style="stop-color:#E4E16A"/>
			<stop  offset="0.8894" style="stop-color:#E9E159"/>
			<stop  offset="1" style="stop-color:#EBE253"/>
		</linearGradient>
		<rect x="106" clip-path="url(#SVGID_2_)" fill="url(#SVGID_3_)" width="2722" height="1080"/>
		<linearGradient id="SVGID_4_" gradientUnits="userSpaceOnUse" x1="240.6665" y1="481.4863" x2="1489.4258" y2="481.4863">
			<stop  offset="0" style="stop-color:#FFFFFF"/>
			<stop  offset="1" style="stop-color:#FFFFFF;stop-opacity:0"/>
		</linearGradient>
		<path opacity="0.3" clip-path="url(#SVGID_2_)" fill="url(#SVGID_4_)" d="M401.421,196.195C446,207,422.881,161.315,565.25,208.5
			c58.333,19.333,23.25-56,106.203,6.695c45.832,18,39.359,34.055,129.297,16.055c113.5,1.5,62.259,44.897,100,57.5
			c36.776,12.281,73-1.5,93.25,42c13.828,29.705,62.011,99.945,106.246,110.229s43.557-40.558,111.663-16.725
			c48.619,17.014,23.89,51.127,79.847,54.774c49.47,3.225,71.815,42.287,71.359,63.951c-0.434,20.617-23.339,23.764,6.951,31.217
			c62.118,15.283-49.174,58.5,18.46,62.5c67.635,4,144.093,53.549,71.49,121.523c-72.603,67.977-120.685,21.707-120.685,21.707
			l-238.121-4.566l-204.668,0.887l-320.608-66.051l-179.04-20.256L326.23,576.204V374.195l-32.897-132.528l-52.667-74
			C240.667,167.667,356.842,185.391,401.421,196.195z"/>
		<linearGradient id="SVGID_5_" gradientUnits="userSpaceOnUse" x1="236" y1="548.4482" x2="1346.3604" y2="548.4482">
			<stop  offset="0" style="stop-color:#FFFFFF"/>
			<stop  offset="1" style="stop-color:#FFFFFF;stop-opacity:0"/>
		</linearGradient>
		<path opacity="0.5" clip-path="url(#SVGID_2_)" fill="url(#SVGID_5_)" d="M499.666,253.945
			C575,221.5,614.129,276.624,658.064,287.479s42.36-26.695,76.602-10.479c35.667,18,13.333,41.167,87.817,30.945
			c46.184-1.445,17.544,43.18,46.915,55.783c28.62,12.281,22.667-42,72.667-4c32.589,24.768,4.76,94.217,64.084,63.217
			s23.101,72.68,37.349,75.783c35.104,7.646,33.896-40.558,86.896-16.725c37.835,17.014,18.592,51.127,62.138,54.774
			c38.498,3.225,55.887,42.286,55.533,63.95c-0.337,20.617-18.163,23.764,5.409,31.217c48.341,15.283-38.268,58.5,14.366,62.5
			s112.134,53.549,55.634,121.524s-93.918,21.706-93.918,21.706l-185.308-4.565l-159.274,0.886l-249.5-66.051l-139.331-20.256
			l-54.991-113.736L236,320.333c0,0,27.338,29.612,52.667-26S455.868,272.808,499.666,253.945z"/>
		
			<linearGradient id="SVGID_6_" gradientUnits="userSpaceOnUse" x1="-933.8447" y1="486.3037" x2="381.9268" y2="486.3037" gradientTransform="matrix(-1 0 0 1 1816.1563 0)">
			<stop  offset="0" style="stop-color:#FFFFFF"/>
			<stop  offset="1" style="stop-color:#FFFFFF;stop-opacity:0"/>
		</linearGradient>
		<path opacity="0.3" clip-path="url(#SVGID_2_)" fill="url(#SVGID_6_)" d="M2591.334,180.333C2534.5,128.5,2332,157.5,2314.5,211.5
			c-16.838,51.957-70.794,12.925-123.35,1c-52.149-11.833-20.65,53.5-68.245,44.385c-113.5,1.5-25.571,51.782-100,57.5
			c-38.659,2.97-70.238-24.052-132.572,13.615c-30.792,18.607-25.088,128.888-66.924,138.614
			c-44.235,10.283-43.557-40.558-111.663-16.725c-48.618,17.014-23.89,51.127-79.847,54.774
			c-49.47,3.225-71.815,42.287-71.359,63.952c0.434,20.617,23.339,23.764-6.951,31.217c-62.118,15.283,49.175,58.5-18.46,62.5
			s-144.093,53.549-71.49,121.523c72.603,67.977,120.686,21.707,120.686,21.707l238.12-4.566l204.668,0.887l320.608-66.051
			l179.04-20.256l70.664-113.736V399.831L2688,301l62.001-149.333C2750.001,151.667,2648.168,232.167,2591.334,180.333z"/>
		
			<linearGradient id="SVGID_7_" gradientUnits="userSpaceOnUse" x1="62.5117" y1="488.5273" x2="1222.3955" y2="488.5273" gradientTransform="matrix(-1 0 0 1 2823.5117 0)">
			<stop  offset="0" style="stop-color:#FFFFFF"/>
			<stop  offset="1" style="stop-color:#FFFFFF;stop-opacity:0"/>
		</linearGradient>
		<path opacity="0.5" clip-path="url(#SVGID_2_)" fill="url(#SVGID_7_)" d="M2548.001,297.667
			c-43.333-47.333-124.946-59.1-229.116,6.543c-4.564,2.876-46.973-30.481-81.215-14.265c-35.667,18,5.215,42.515-112.677,35
			c-55.108-0.36-17.544,43.18-46.915,55.783c-28.619,12.281-36.276-26.98-86.276,11.02c-32.589,24.768,8.851,79.197-50.474,48.197
			c-59.325-31-30.816,59.031-65.241,69.314c-34.424,10.283-42.952-30.133-95.952-6.3c-37.835,17.014,18.355,47.171-25.189,50.818
			c-38.498,3.225-55.888,42.286-55.533,63.95c0.338,20.617,18.163,23.764-5.409,31.217c-48.341,15.283,38.268,58.5-14.366,62.5
			s-112.134,53.549-55.634,121.524s93.918,21.706,93.918,21.706l185.308-4.565l159.274,0.886l249.5-66.051l139.331-20.256
			l54.99-113.736L2664,501l75-178l22-216C2761,107,2591.334,345,2548.001,297.667z"/>
		<circle opacity="0.3" clip-path="url(#SVGID_2_)" fill="#EEC11B" cx="1470.021" cy="759.61" r="84.554"/>
		<linearGradient id="SVGID_8_" gradientUnits="userSpaceOnUse" x1="1470.0215" y1="700.8555" x2="1470.0215" y2="815.4102">
			<stop  offset="0" style="stop-color:#ECC01C"/>
			<stop  offset="0.029" style="stop-color:#EEC220"/>
			<stop  offset="0.204" style="stop-color:#F4CB35"/>
			<stop  offset="0.4005" style="stop-color:#F9D244"/>
			<stop  offset="0.634" style="stop-color:#FCD64D"/>
			<stop  offset="1" style="stop-color:#FDD850"/>
		</linearGradient>
		<circle clip-path="url(#SVGID_2_)" fill="url(#SVGID_8_)" cx="1470.021" cy="758.133" r="57.277"/>
		<path clip-path="url(#SVGID_2_)" fill="#18351A" d="M2092.432,459c19.846-7.034,46.5-29,66.5-40s21-41.5,41.5-37s49-21.5,58.5-23
			s19.667-7.167,29-3.5c9.334,3.667,64,7.5,74,2.75s14-4,20.75-0.75s18.25,13.25,25.5,15.5s15.75-4.75,34,16.5s15.5,3.5,23,9.75
			s7,9.75,17.5,15s27.5,4.25,32.25,18s37,12,47.5,14.25s60.75,30.797,78.5,48.334s-26.5,48.166-26.5,48.166l-100.5,7l-119.5-7
			l-212.5-9.5l-99-8.5v-44l10.5-19.5"/>
		<path clip-path="url(#SVGID_2_)" fill="#18351A" d="M768.089,421.027c0,0-37.089-71.527-70.589-85.36
			c-36.234-14.962-36.654,3.287-39.833,1.61C585,298.941,589.666,346.44,539,350.69s-37.334,23.584-87.333-15.75
			S318,325.667,318,325.667L302.667,441l85,60.607l127.332,2.664L607,484.941l56-41.333L768.089,421.027z"/>
		<path clip-path="url(#SVGID_2_)" fill="#1D3F21" d="M871.5,484l-2.26,8.16c-6.57,2.1-10.93,4.03-11.22,4.16L871.5,484z"/>
		<path clip-path="url(#SVGID_2_)" fill="#1D3F21" d="M1320,783.14l-79.5,21.36l-65-21.36l-78.5-7.39l-81.5-5.75l-47-48.5
			L904,639.95l-29.87-80.4L873,556.5l-8-39l4.24-15.34c13.63-4.34,36.75-9.39,52.76-0.49c24,13.33,22,4,30.67,4.66
			c8.66,0.67,4.66,3.34,20.66,14.67s32,29.33,52,37.33s25,30,37,30c10.3,0,12.49-5.4,19.65-2.3v0.01c1.18,0.51,2.5,1.25,4.02,2.29
			c10.67,7.34,14.33,27.53,26,40.77c11.67,13.23,8.33,24.57,19.33,25.9s20,22.67,22.34,34.67c2.33,12,8,23.33,14.33,23.33
			s9.67,3.67,19.33,9c9.67,5.33,19.67,12,25,10.67c5.34-1.34,13.67-5.32,19,0.17C1236.67,738.33,1312.33,780.48,1320,783.14z"/>
		<path clip-path="url(#SVGID_2_)" fill="#19351C" d="M1085.33,660.67l-4.16,23.33l3.83,13l-3.83,26.52l-16.66,6.15l-37.51-36
			c0,0-42.33-37-45.33-42.67s-36.67-46.33-40-47.67C938.33,602,903.33,567,903.33,567l-29.2-7.45L873,556.5l-8-39l4.24-15.34
			c13.63-4.34,36.75-9.39,52.76-0.49c24,13.33,22,4,30.67,4.66c8.66,0.67,4.66,3.34,20.66,14.67s32,29.33,52,37.33s25,30,37,30
			c10.3,0,12.49-5.4,19.65-2.3v0.01l7.02,39.63l-15.67,16.66L1085.33,660.67z"/>
		<linearGradient id="SVGID_9_" gradientUnits="userSpaceOnUse" x1="261.8213" y1="611.0703" x2="1149.6099" y2="611.0703">
			<stop  offset="0" style="stop-color:#4B7434"/>
			<stop  offset="0.1375" style="stop-color:#527C37"/>
			<stop  offset="0.4034" style="stop-color:#5D883B"/>
			<stop  offset="0.6837" style="stop-color:#64903E"/>
			<stop  offset="1" style="stop-color:#66923E"/>
		</linearGradient>
		<path clip-path="url(#SVGID_2_)" fill="url(#SVGID_9_)" d="M1149.61,801.5l-315.4,59.54l-240.66,8.86
			c0,0-207.74,13.93-215.34,16.47c-7.6,2.53-115.26-41.8-115.26-41.8s-2.54-250.801,0-258.4c2.53-7.6,49.4-154.53,49.4-154.53
			l-31.017-95.973c0,0,95.716,93.153,176.997,81.953c18.96-2.61,42.39-7.74,71.38-16.43c2.88-0.86,7.466-0.26,10.457-1.19
			c4.42-1.38,21.784-12.59,38.284-20.83c11.75-5.88,22.22-11,25.22-11.84c79.68-22.39,126.37-4.65,151.33,8.34
			c0,0,10.7,37.33,24,41.83c30.4,10.27,44.77,29.43,49.84,34.5c2.95,2.95,37.66-9.5,37.66-9.5s60.15,57.89,57.5,86
			c0,0,4.87,7.2,13.32,17.79c0.02,0.02,0.03,0.03,0.03,0.03c15.21,19.04,42.01,49,72.93,67.72c48.13,29.13,52.42,57.19,56.22,77.46
			S1078.68,795.17,1149.61,801.5z"/>
		<linearGradient id="SVGID_10_" gradientUnits="userSpaceOnUse" x1="464.8149" y1="757.9053" x2="757.8485" y2="464.8717">
			<stop  offset="0" style="stop-color:#2C471D"/>
			<stop  offset="0.0638" style="stop-color:#2F4B1F"/>
			<stop  offset="0.4878" style="stop-color:#43642D"/>
			<stop  offset="0.8136" style="stop-color:#4F7435"/>
			<stop  offset="1" style="stop-color:#537A38"/>
		</linearGradient>
		<path clip-path="url(#SVGID_2_)" fill="url(#SVGID_10_)" d="M855.93,713.56l-69.84,40.271l-141,4.62l-188-8.271v-86l6-127
			l-4.76-119.56c18.96-2.61,42.39-7.74,71.38-16.43c2.88-0.86,5.8-1.76,8.79-2.69c4.42-1.38,2.9,1.09,39.95-19.33
			s61.497-19.767,61.497-19.767s4.631,40.189,36.053,53.52c33,14,82.738,31.504,72.068,62.504s33.021,39.753,77.402,96.092
			C869.84,627.85,855.93,713.56,855.93,713.56z"/>
		<path display="none" clip-path="url(#SVGID_2_)" fill="#7A4520" d="M426.527,435.09c24,1.333,28,9.333,43.333,0s22-8,36-2.667
			s26,13.333,43.333,14s26.667-7.511,32-9.089s10.667,1.166,12,9.127s0,14.628,12,16.628s9.667,3,15.333-1.333s7-5.667,14,1.333
			s4.333,14.333,11,13.333s15.333-8.667,24.333,2.333s-0.138,15.494,6.431,26.914s12.235,22.417,20.902,26.085
			s15.333,4.334,20,11.668s3,13.668,13.333,15.334s11.333-8.667,23.667-6.667s14,6.032,27.333,6.85s7.667-15.183,23.667-20.183
			s17-5.334,31,2.333s14,9.093,26.667,17.88s23,3.121,29.667,13.787s-2.667,11.667,13,21s9-1.001,23.333,17.666s0,61.5,0,61.5
			l-11.667,60.25h-116h-194l-102-16.75l-129.333-7.5l-43.667-112.714l14-120.786l26.5-72.5L426.527,435.09z"/>
		<path clip-path="url(#SVGID_2_)" fill="#1D3F21" d="M1867.031,642.635c-2.233,0-29.029-19.425-43.915,8.218
			c-3.827,6.322-14.142-3.643-34.982-7.424c-20.841-3.782-58.801,23.859-69.221,29.836c-10.42,5.976-13.375,22.365-34.238,40.659
			c-7.049,6.181-30.517,10.139-46.147,8.646c-15.63-1.493-21.586,0-32.006,19.424c-10.42,19.425-72.521,44.881-72.521,44.881
			l140.255,28.333l124.299,10.459l96.761-18.677l4.466-79.937l14.886-85.166l-28.749-14.435L1867.031,642.635z"/>
		<path clip-path="url(#SVGID_2_)" fill="#67923E" d="M2501.33,820.278l-53.51,36.19l-176.58,5.949c0,0-218.86,0-220.471,0
			c-1.6,0-124.149,2.7-124.149,2.7l-123.61-29.71l-76.52-10.26c3.75-17.29,20.87,14.04,37.46-42.13
			c3.12-10.58,6.68-22.17,10.41-34.271c0.29-0.93,0.58-1.87,0.87-2.81c15.949-51.521,34.92-111.521,38.75-142.521
			c4.819-38.89,32.109-36.46,40.14-47.81c7.34-10.38,20.12-62.9,36.35-64.83c1.5-0.18,3.021,0.07,4.58,0.83
			c35.95,17.46,8.83,0.81,50.57,4.86c41.74,4.05,63.41,19.44,63.41,19.44c7.22-35.65,32.109-49.42,32.109-49.42
			c0.801-18.64,34.74-52.75,54.98-57.92c50.71,35.67,85.75,27.14,85.75,27.14c41.57-36.89,119.8-11.24,155.76,3.61
			c-16.72,9.98-40.36,33.57-52.88,47.74c-6.02,4.82-16.46-10.03-38.53,17.26c-6.819,4.81-28.09-1.61-37.729,0
			c-9.63,1.6-23.67,23.68-36.521,28.09c-12.84,4.42-77.859,61.41-105.149,114.38c-1.42,1.99-3.38,2.53-5.771,2.48l-3.72,10.09
			l21.26-9.79l63.41-35.46l33.33-33.21l52.67-40.33l47.33-14.33l56-22.67l19.34-28.67l7.26-26.64l15.511,4.73l34.79-19.99
			l30.979-28.12l16.64-15.09l20.33,34.57L2501.33,820.278z"/>
		<linearGradient id="SVGID_11_" gradientUnits="userSpaceOnUse" x1="1775.2305" y1="618.1055" x2="1890.4697" y2="618.1055">
			<stop  offset="0" style="stop-color:#94AB7B"/>
			<stop  offset="1" style="stop-color:#77A04D"/>
		</linearGradient>
		<path clip-path="url(#SVGID_2_)" fill="url(#SVGID_11_)" d="M1877,626.88c37.666,28.787-91.108,73.868-44,115.12l-53,4l-4.77-0.63
			c15.949-51.521,34.92-111.521,38.75-142.521c4.819-38.89,32.109-36.46,40.14-47.81c7.34-10.38,20.12-62.9,36.35-64.83
			C1890.47,490.21,1849.493,605.857,1877,626.88z"/>
		<path clip-path="url(#SVGID_2_)" fill="#427337" d="M1944.91,717.99l-17.22,57.95l-106.671,36.93L1675.57,859l-79.07,14.32H1551
			c0,0,23.87-57.391,36.55-55.09c12.681,2.289,36.55-27.551,46.99-36.48c10.45-8.93,20.14-18.62,45.5-17.69
			c24.13,0.881,41.5-9.06,54.05-29.779l13.86,2.72l14.96-2.49l13.24-12.95l1.529-8.81l13.78-20.14
			c25.32-1.61,47.96-23.511,67.61-1.4C1882.19,717.22,1944.91,717.99,1944.91,717.99z"/>
		<path clip-path="url(#SVGID_2_)" fill="#59833A" d="M1791.46,692.61l-13.78,20.14l-1.529,8.81l-13.24,12.95l-14.96,2.49
			l-13.86-2.72c0.65-1.061,1.28-2.16,1.9-3.28c12.68-22.96,24.71-44.72,41.77-39.79C1782.41,692.55,1786.98,692.9,1791.46,692.61z"
			/>
		<path clip-path="url(#SVGID_2_)" fill="#678C45" d="M1791.46,692.61l-13.78,20.14l-1.529,8.81l-13.24,12.95l-14.96,2.49
			l-13.86-2.72c0.65-1.061,1.28-2.16,1.9-3.28c12.68-22.96,24.71-44.72,41.77-39.79C1782.41,692.55,1786.98,692.9,1791.46,692.61z"
			/>
		<path display="none" clip-path="url(#SVGID_2_)" fill="#633C1F" d="M2323.94,617.5c0,0-21.879-15.334-73.593-33.334
			c-51.715-18-80.553-26.666-97.461-14c-16.907,12.668-32.707,13.334-43.205,13.334c-10.497,0-29.892-1-36.355,3
			s-11.934-2.666-19.393-3s-20.883-3-25.856,2s-17.901,12-26.105,10.5c-8.205-1.5-26.355,16.167-32.322,18.167
			s-12.68,2.166-15.663,8.666s-20.139,13.835-27.847,11.001s-15.166-4.248-20.884,0.626c-5.719,4.874-40.776,32.041-40.277,35.374
			c0.498,3.333-10.94,14-18.647,16c-7.706,2-14.67,3.499-19.393,10.666s-37.801,39.167-58.438,45.5
			c-20.637,6.333,41.036-2.667,41.036-2.667l-8.703,30.5l139.728,27.667h239.426c0,0,213.688,2.5,212.385,0
			S2362.726,674,2362.726,674L2323.94,617.5z"/>
		<path display="none" clip-path="url(#SVGID_2_)" fill="#AA6B41" d="M2476.834,326.833c0,0,25.836,38.777,8.166,52.667
			s-62.5-28.417-84.5-23.75s-23.666,5.75-54.333,19.083s-30.282,22.573-33.334,27.167s-4.667,13.5-15.333,22.833
			s-24,32.667-24,32.667s-5.332,33.334-18.666,42.667s42.666,0,42.666,0l43.334-14.667l88-28l52.666-16.667l56.667-76l-21.333-26
			L2476.834,326.833z"/>
		<linearGradient id="SVGID_12_" gradientUnits="userSpaceOnUse" x1="2337.6299" y1="541.5" x2="2018.667" y2="541.5">
			<stop  offset="0" style="stop-color:#2C471D"/>
			<stop  offset="0.0638" style="stop-color:#2F4B1F"/>
			<stop  offset="0.4878" style="stop-color:#43642D"/>
			<stop  offset="0.8136" style="stop-color:#4F7435"/>
			<stop  offset="1" style="stop-color:#537A38"/>
		</linearGradient>
		<path clip-path="url(#SVGID_2_)" fill="url(#SVGID_12_)" d="M2337.63,438.75c-16.72,9.98-40.36,33.57-52.88,47.74
			c-6.02,4.82-16.46-10.03-38.53,17.26c-6.819,4.81-28.09-1.61-37.729,0c-9.63,1.6-23.67,23.68-36.521,28.09
			c-12.84,4.42-77.859,61.41-105.149,114.38c-1.42,1.99-45.763,28.83-48.153,28.78c0,0,6.145-43.285,17.667-55.333
			c26.46-27.667-15.608-49.334-6.608-79.667c9-30.333,66.395-132,66.395-132c50.71,35.67,85.75,27.14,85.75,27.14
			C2223.44,398.25,2301.67,423.9,2337.63,438.75z"/>
		<path clip-path="url(#SVGID_2_)" fill="#B1B349" d="M2439.21,404.31l5.4,71.21v345.15l-65.28,4.811l-115.58,5.89h-274.52
			l-70.101-6.42l3.75-20.87c-0.32-27.63,3.16-49.72,9.08-67.48c20.85-62.63,71.95-71.399,93.54-79.22v-0.01
			c3.47-1.26,6.18-2.49,7.88-3.92c11.19-9.431,21.09-4.88,27.67-4.75l2.946-0.368L2078.59,649l63.41-35.46l33.33-33.21L2228,540
			l47.33-14.33l30.479-12.34L2331.33,503l19.34-28.67l7.26-26.64l-1.34-0.41c0,0-7.229-3.69-18.96-8.53
			c3.64-2.18,6.96-3.71,9.76-4.35c5.19-0.52,10.16-1.45,14.9-2.73c50.34-13.52,75.88-65.34,75.88-65.34l25,12.17l-24.439,19.42
			L2439.21,404.31z"/>
		<path clip-path="url(#SVGID_2_)" fill="#C0BF57" d="M2025.5,657.38l-6.83,22.62l-7.04,13.18l-17.72,24.521l-9.62,15.96
			L1962.37,746l-30.41-9.4C1952.81,673.97,2003.91,665.2,2025.5,657.38z"/>
		<path clip-path="url(#SVGID_2_)" fill="#C0BF57" d="M2357.93,447.69l-7.26,26.64L2331.33,503l-56,22.67L2228,540l-52.67,40.33
			L2142,613.54L2078.59,649l-14.594-0.668c0,0,1.404-0.122,2.824-2.112c27.29-52.97,92.31-109.96,105.149-114.38
			c12.851-4.41,26.891-26.49,36.521-28.09c9.64-1.61,30.91,4.81,37.729,0c22.07-27.29,32.511-12.44,38.53-17.26
			c12.52-14.17,36.16-37.76,52.88-47.74c11.73,4.84,18.96,8.53,18.96,8.53L2357.93,447.69z"/>
		<path display="none" clip-path="url(#SVGID_2_)" fill="#D34B36" d="M2557.624,610.617c0,0-50.667-36.666-72-38.666
			s-21.333-14.668-30-17.334s-12-4-26,4.666c-14,8.668-15.999,18-31.333,14s-21.334-12-35.334-12s-26.666,7.334-31.333,15.334
			s-12.348,18.168-18.667,21.334s-18.666,3.332-24.666,12.666s-12.667,39.571-26.667,45.119s24.205,22.881,24.205,22.881
			l42.462,24.667l82.666,12.666l56-10.666l54.667-6.946l40.667-52.29L2557.624,610.617z"/>
		<path clip-path="url(#SVGID_2_)" fill="#633C1F" d="M452.667,577.666c0,0,0.95,0.713,3.496,2.195
			c7.903,4.603,31.185,16.627,89.171,37.805C622,645.666,614,632.333,662,675s77.246,68.327,115.947,68.38
			s71.387,6.287,91.387,19.62s27.333,43.332,63.333,55.332s48.667,42.667,63.333,54.667l-210.673-10.162
			c0,0-250.661-8.671-254.661-6.921s-134-24.25-134-24.25l6-162c0,0,9.333-58,11.333-62.667s28-32.667,28-32.667"/>
		<linearGradient id="SVGID_13_" gradientUnits="userSpaceOnUse" x1="578.3555" y1="448.9927" x2="578.3555" y2="821.0005">
			<stop  offset="0" style="stop-color:#BECB86"/>
			<stop  offset="1" style="stop-color:#BBCB77"/>
		</linearGradient>
		<path clip-path="url(#SVGID_2_)" fill="url(#SVGID_13_)" d="M904.5,821H754l-137.5-11l-133-1.5l-110.5,4L252,788V642l20.67-98
			l14.66-54c0,0,78.67-45.34,114-40.67C436.67,454,418,464.99,440,469.49c19.26,3.95,18.08,0.86,47.47,15.69
			c4.18,2.11,8.97,4.58,14.53,7.48c44.67,23.34,40.67,6,70.33,4.67c4.71-0.21,8.98,0,12.87,0.55c1.45,0.19,2.84,0.44,4.18,0.73
			c17.87,3.87,27.37,15.19,37.29,24.05c12.66,11.34,8.66,8.67,13.33,6.67s10,3.33,17.33,8.67c7.34,5.33,6.67,16,12.67,25.33
			s6.17,2,11.67,2s21.33,18.17,26.5,23.34c5.16,5.16,15.66,9.66,20.66,9.66s5.67,3.36,13.67,13.77c8,10.4,16.41,25.78,26.5,27.9
			c22,4.62,0.5,5.5,25.5,28.5s42.5,24.5,46.5,41s4.5,14.5,23,17.5s24,7,31,18s1,19,6,33.5S904.5,821,904.5,821z"/>
		<path clip-path="url(#SVGID_2_)" fill="#ACB76E" d="M732.71,737l-18.94,12.51l-68.06-6.88L618,735.69L544,722c0,0-33.5-13-36-15
			s-32.5-64.72-32.5-64.72L482.67,536l4.8-50.82c4.18,2.11,8.97,4.58,14.53,7.48c44.67,23.34,40.67,6,70.33,4.67
			c4.71-0.21,8.98,0,12.87,0.55l6.99,28.12l26.31,42.5l4.5,20.79l20.5,32.27l18.69,22.94l27.41,26.61l10.9,21.659l7.04,17.24
			L732.71,737z"/>
		<linearGradient id="SVGID_14_" gradientUnits="userSpaceOnUse" x1="696.333" y1="756.6426" x2="1258.5332" y2="756.6426">
			<stop  offset="0" style="stop-color:#787D2D"/>
			<stop  offset="0.049" style="stop-color:#808431"/>
			<stop  offset="0.184" style="stop-color:#929539"/>
			<stop  offset="0.3317" style="stop-color:#9FA23F"/>
			<stop  offset="0.4966" style="stop-color:#A8AB43"/>
			<stop  offset="0.6927" style="stop-color:#AEB146"/>
			<stop  offset="1" style="stop-color:#B1B347"/>
		</linearGradient>
		<path clip-path="url(#SVGID_2_)" fill="url(#SVGID_14_)" d="M706.833,765.999l-10.5,19.5v44l99,8.5l212.5,9.5l119.5,7l100.5-7
			c0,0,44.25-30.629,26.5-48.166s-68-46.084-78.5-48.334s-42.75-0.5-47.5-14.25s-21.75-12.75-32.25-18s-10-8.75-17.5-15
			s-4.75,11.5-23-9.75s-26.75-14.25-34-16.5s-18.75-12.25-25.5-15.5s-10.75-4-20.75,0.75s-64.667,0.917-74-2.75s-19.5,2-29,3.5
			s-38,27.5-58.5,23s-21.5,26-41.5,37s-46.654,32.966-66.5,40"/>
		<path display="none" clip-path="url(#SVGID_2_)" fill="#D34B36" d="M481.659,664.375c0,0,36.675-53.843,68.008-41.756
			s42,3.315,61.333-2.299s35.333,6.859,50,23.289s12.667,29.097,31.333,38.43s29.433,1.833,39.05,18.583s41.252,17.644,51.95,25.417
			s7.666,12.666,12.333,25.333S789,772.211,789,772.211l-57.617-8.574l-70.978-6.6l-72.739-13.665l-55-31.937l-17-37.081
			L481.659,664.375z"/>
		<linearGradient id="SVGID_15_" gradientUnits="userSpaceOnUse" x1="2226.6699" y1="496.3447" x2="2706" y2="496.3447">
			<stop  offset="0" style="stop-color:#9A9B37"/>
			<stop  offset="1" style="stop-color:#6C6F27"/>
		</linearGradient>
		<path clip-path="url(#SVGID_2_)" fill="url(#SVGID_15_)" d="M2597.425,681.388l-62.957,20.302l-89.857-20.229l-23.28,2.87
			l-57.3,3.34L2304,673l-51.33-24.3l-26-21.82l36.66-50.55l31.15-18.66l11.329-44.34L2331.33,503l19.34-28.67l7.26-26.64l-1.34-0.41
			c0,0-7.229-3.69-18.96-8.53c3.64-2.18,6.96-3.71,9.76-4.35c5.19-0.52,10.16-1.45,14.9-2.73c50.34-13.52,26.049-34.343,75.88-65.34
			S2667,291,2667,291l39,198.335L2597.425,681.388z"/>
		<path clip-path="url(#SVGID_2_)" fill="#BECC87" d="M2562.617,758.476c0,0-126.604-122.144-152.476-124.146
			c-25.871-2.001-39.082,30.036-68.807,28.034c-29.725-2.003-28.353-32.038-61.791-42.051c-33.438-10.011-58.759-8.008-78.575,0
			c-19.816,8.01-25.871,30.036-42.385,39.047s-23.669,15.018-36.88,13.015c-13.211-2.002-27.523,16.363-32.478,18.193
			c-4.953,1.83-51.742,22.855-59.448,21.854c-7.707-1-31.376,2.003-45.138,9.011c-13.762,7.009-39.082,35.041-47.339,37.044
			s-48.99,57.067-76.513,71.084c-27.523,14.016,263.116-10.013,263.116-10.013l155.639-5.006l155.368,9.011l124.953-9.011
			L2562.617,758.476z"/>
		<path clip-path="url(#SVGID_2_)" fill="#BECC87" d="M2562.62,758.48l-2.75,56.06l-124.96,9.01l-155.37-9.01l-155.63,5.01
			c0,0-290.641,24.03-263.12,10.01c27.52-14.02,68.25-69.079,76.51-71.079c8.26-2.011,33.58-30.04,47.34-37.051
			c13.761-7.01,37.431-10.01,45.141-9.01c7.7,1,54.489-20.02,59.45-21.85c4.949-1.83,19.26-20.2,32.47-18.2
			c13.22,2.01,20.37-4,36.88-13.01c16.52-9.011,22.57-31.04,42.39-39.051c10.23-4.14,21.931-6.67,35.46-6.77
			c12.67-0.1,26.94,1.93,43.11,6.77c33.44,10.021,32.07,40.051,61.79,42.051c29.729,2.01,42.939-30.03,68.81-28.03
			c7.92,0.61,25.29,12.49,45.58,28.68C2501.68,699.68,2562.62,758.48,2562.62,758.48z"/>
		<path clip-path="url(#SVGID_2_)" fill="#ACB76E" d="M2470,817.58l-333-8.41l2-54.689l15.6-49.421l23.551-14.39L2202.7,680l3.3-15
			l30.34-51.45l0.09-0.01c12.67-0.1,26.94,1.93,43.11,6.77c33.44,10.021,32.07,40.051,61.79,42.051
			c29.729,2.01,42.939-30.03,68.81-28.03c7.92,0.61,25.29,12.49,45.58,28.68L2470,817.58z"/>
		<polygon clip-path="url(#SVGID_2_)" fill="#67923E" points="698.531,752.508 718.695,701.682 738.858,752.508 		"/>
		<polygon clip-path="url(#SVGID_2_)" fill="#5F7332" points="867.75,775.094 887.915,710.173 908.078,775.094 		"/>
		<polygon clip-path="url(#SVGID_2_)" fill="#5F7332" points="1048.672,776.664 1068.836,739.75 1089,776.664 		"/>
		<polygon clip-path="url(#SVGID_2_)" fill="#2E6733" points="893.756,772.295 913.92,707.374 934.084,772.295 		"/>
		<polygon clip-path="url(#SVGID_2_)" fill="#2E6733" points="1037.256,778.441 1057.42,713.521 1077.584,778.441 		"/>
		<polygon clip-path="url(#SVGID_2_)" fill="#67923E" points="445.864,662.869 466.028,597.948 486.192,662.869 		"/>
		<polygon clip-path="url(#SVGID_2_)" fill="#8DA041" points="668.197,757.29 692.528,695.961 716.858,757.29 		"/>
		<polygon clip-path="url(#SVGID_2_)" fill="#859B3D" points="314.534,618.336 338.864,540 363.194,618.336 		"/>
		<polygon clip-path="url(#SVGID_2_)" fill="#859B3D" points="264.534,618.336 288.864,540 313.194,618.336 		"/>
		<polygon clip-path="url(#SVGID_2_)" fill="#859B3D" points="464.53,690.709 488.861,612.373 513.191,690.709 		"/>
		<polygon clip-path="url(#SVGID_2_)" fill="#859B3D" points="559.531,731.938 583.861,653.603 608.191,731.938 		"/>
		<polygon clip-path="url(#SVGID_2_)" fill="#67923E" points="637.864,751.289 662.195,700.765 686.525,751.289 		"/>
		<polygon clip-path="url(#SVGID_2_)" fill="#B1B349" points="543.531,721.637 567.862,671.111 592.192,721.637 		"/>
		<polygon clip-path="url(#SVGID_2_)" fill="#B1B349" points="338.864,621.559 363.195,557.022 387.525,621.559 		"/>
		<polygon clip-path="url(#SVGID_2_)" fill="#B1B349" points="401.531,642.276 425.861,577.74 450.191,642.276 		"/>
		<polygon clip-path="url(#SVGID_2_)" fill="#B1B349" points="482.669,706.813 507,642.276 531.33,706.813 		"/>
		<polygon clip-path="url(#SVGID_2_)" fill="#B1B349" points="585.197,744.203 609.528,679.667 633.858,744.203 		"/>
		<polygon clip-path="url(#SVGID_2_)" fill="#8DA041" points="604.882,740.979 629.213,686.961 653.543,740.979 		"/>
		<polygon clip-path="url(#SVGID_2_)" fill="#7A923B" points="499.549,715.419 523.879,661.401 548.209,715.419 		"/>
		<polygon clip-path="url(#SVGID_2_)" fill="#7A923B" points="384.917,642.276 409.248,573.278 433.578,642.276 		"/>
		<polygon clip-path="url(#SVGID_2_)" fill="#859B3D" points="729.882,749.508 748.068,696.374 766.254,749.508 		"/>
		<polygon clip-path="url(#SVGID_2_)" fill="#515C28" points="830.067,772.295 848.253,704.426 866.439,772.295 		"/>
		<polygon clip-path="url(#SVGID_2_)" fill="#515C28" points="795.401,784.805 813.587,716.936 831.772,774.805 		"/>
		<polygon clip-path="url(#SVGID_2_)" fill="#859B3D" points="937.32,770.577 955.506,712.708 973.691,780.577 		"/>
		<polygon clip-path="url(#SVGID_2_)" fill="#859B3D" points="998.587,778.138 1028.607,710.269 1058.626,778.138 		"/>
		<polygon clip-path="url(#SVGID_2_)" fill="#859B3D" points="522.719,701.579 540.905,633.71 559.09,701.579 		"/>
		<polygon clip-path="url(#SVGID_2_)" fill="#859B3D" points="427.678,650.7 445.864,582.831 464.05,650.7 		"/>
		<polygon clip-path="url(#SVGID_2_)" fill="#2E6733" points="746.423,756.618 766.254,706.633 786.084,756.618 		"/>
		<polygon clip-path="url(#SVGID_2_)" fill="#7A923B" points="983.757,768.566 1003.587,704.719 1023.417,768.566 		"/>
		<polygon clip-path="url(#SVGID_2_)" fill="#2E6733" points="766.253,767.618 786.084,703.771 805.914,765.618 		"/>
		<polygon clip-path="url(#SVGID_2_)" fill="#2E6733" points="848.253,770.284 868.084,706.437 887.914,770.284 		"/>
		<polygon clip-path="url(#SVGID_2_)" fill="#2E6733" points="809.01,773.862 828.84,710.015 848.67,773.862 		"/>
		<polygon clip-path="url(#SVGID_2_)" fill="#5F7332" points="1077.584,787.018 1097.415,723.17 1117.245,787.018 		"/>
		<polygon clip-path="url(#SVGID_2_)" fill="#2E6733" points="1091.584,794.219 1111.415,730.371 1131.245,794.219 		"/>
		<polygon clip-path="url(#SVGID_2_)" fill="#2E6733" points="1107.334,806.729 1127.165,742.881 1146.995,806.729 		"/>
		<polygon clip-path="url(#SVGID_2_)" fill="#859B3D" points="1120.584,815.954 1140.415,752.106 1160.245,815.954 		"/>
		<polygon clip-path="url(#SVGID_2_)" fill="#2E6733" points="1136.084,818.941 1155.915,755.094 1175.745,818.941 		"/>
		<polygon clip-path="url(#SVGID_2_)" fill="#2E6733" points="1150.834,826.143 1170.665,762.295 1190.495,826.143 		"/>
		<polygon clip-path="url(#SVGID_2_)" fill="#2E6733" points="1174.584,820.489 1194.415,756.642 1214.245,820.489 		"/>
		<polygon clip-path="url(#SVGID_2_)" fill="#2E6733" points="1187.852,822.506 1207.682,758.658 1227.512,822.506 		"/>
		<polygon clip-path="url(#SVGID_2_)" fill="#2E6733" points="1215.602,815.277 1235.432,751.43 1255.262,815.277 		"/>
		<polygon clip-path="url(#SVGID_2_)" fill="#2E6733" points="1235.432,813.512 1255.262,749.664 1275.092,813.512 		"/>
		<polygon clip-path="url(#SVGID_2_)" fill="#2E6733" points="1248.432,804.418 1268.262,740.57 1288.092,804.418 		"/>
		<polygon clip-path="url(#SVGID_2_)" fill="#2E6733" points="914.253,778.566 934.084,714.719 953.914,778.566 		"/>
		<polygon clip-path="url(#SVGID_2_)" fill="#2E6733" points="1055.503,757.17 1075.334,716.114 1095.164,757.17 		"/>
		<polygon clip-path="url(#SVGID_2_)" fill="#2E6733" points="970.586,776.127 992.676,712.279 1014.764,776.127 		"/>
		<polygon clip-path="url(#SVGID_2_)" fill="#2E6733" points="1020.336,777.904 1042.426,714.057 1064.514,777.904 		"/>
		<polygon clip-path="url(#SVGID_2_)" fill="#1F5128" points="951.92,767.173 971.75,717.012 991.581,767.173 		"/>
		<polygon clip-path="url(#SVGID_2_)" fill="#2E6733" points="575.586,727.391 595.417,677.404 615.247,727.391 		"/>
		<polygon clip-path="url(#SVGID_2_)" fill="#2E6733" points="369.586,616.766 389.417,552.918 409.247,616.766 		"/>
		<polygon clip-path="url(#SVGID_2_)" fill="#2E6733" points="533.253,722.633 553.084,658.785 572.914,722.633 		"/>
		<path clip-path="url(#SVGID_2_)" fill="#7A923B" d="M387,685.583c0,0,38,11,45.25,9.083c7.25-1.916,18.5,4.917,21.833,6.417
			s12.667-3,45.417,0c15.75,0.625,10.125,8.5,29,7.875s34.75-5.625,54.5-2.375s40,24.75,85.25,26.5s78.75-2,108.75,2.5
			s50.75-15,89.75-3.25s79.75,14.75,99.25,15.5s41.5-1.75,61.75-11.75c7-4.75,14.5,1.75,21.5,2.5s9.25-6,23-2.25s33,12,37,13
			s31.5,37,70.5,49s39,20.75,44.75,30s1.5,6.917,1.5,6.917l-47,10.666l-213.333-6.333L783,840.916l-215-2.999l-108.333-4L361,829.25
			l-12.333-67.667l17-65.667L387,685.583z"/>
		<path clip-path="url(#SVGID_2_)" fill="#2E6733" d="M645.712,864.736c0,0,20.621-40.894,53.288-48.628
			c32.667-7.733,50.667-15.745,75.333-10.531s32.667-4.936,54-11.22s37.667-29.002,68.833-27.068S897,782.756,947,796.29
			s62,8.701,78.667,6.284c16.667-2.416,6-18.247,36-2.356s43.333,5.256,60.667,3.323c17.333-1.934,18.667,13.051,40,23.201
			s57.333,10.15,71.333,18.609s28.667,19.886,40.667,19.247L645.712,864.736z"/>
		<polygon clip-path="url(#SVGID_2_)" fill="#5F7332" points="1867.125,747.372 1883.159,695.748 1899.192,747.372 		"/>
		<polygon clip-path="url(#SVGID_2_)" fill="#6F8D3B" points="2054.792,778.184 2070.826,726.56 2086.859,778.184 		"/>
		<polygon clip-path="url(#SVGID_2_)" fill="#6F8D3B" points="2067.792,776.197 2083.826,724.573 2099.859,776.197 		"/>
		<polygon clip-path="url(#SVGID_2_)" fill="#205128" points="2081.843,767.811 2097.877,716.187 2113.91,767.811 		"/>
		<polygon clip-path="url(#SVGID_2_)" fill="#6F8D3B" points="2091.337,761.696 2107.371,710.072 2123.404,761.696 		"/>
		<polygon clip-path="url(#SVGID_2_)" fill="#6F8D3B" points="2103.087,765.198 2119.121,713.574 2135.154,765.198 		"/>
		<polygon clip-path="url(#SVGID_2_)" fill="#6F8D3B" points="2110.837,759.474 2126.871,707.85 2142.904,759.474 		"/>
		<polygon clip-path="url(#SVGID_2_)" fill="#205128" points="2119.12,761.696 2135.154,710.072 2151.188,761.696 		"/>
		<polygon clip-path="url(#SVGID_2_)" fill="#6F8D3B" points="2132.62,756.446 2148.654,704.822 2164.688,756.446 		"/>
		<polygon clip-path="url(#SVGID_2_)" fill="#6F8D3B" points="2144.353,754.909 2160.387,703.285 2176.42,754.909 		"/>
		<polygon clip-path="url(#SVGID_2_)" fill="#205128" points="2154.603,752.372 2170.637,700.748 2186.67,752.372 		"/>
		<polygon clip-path="url(#SVGID_2_)" fill="#6F8D3B" points="2162.114,747.372 2178.148,695.748 2194.182,747.372 		"/>
		<polygon clip-path="url(#SVGID_2_)" fill="#205128" points="2178.147,752.372 2194.182,700.748 2210.215,752.372 		"/>
		<polygon clip-path="url(#SVGID_2_)" fill="#6F8D3B" points="2170.637,747.372 2186.671,695.748 2202.704,747.372 		"/>
		<polygon clip-path="url(#SVGID_2_)" fill="#6F8D3B" points="2193.137,756.446 2209.171,704.822 2225.204,756.446 		"/>
		<polygon clip-path="url(#SVGID_2_)" fill="#205128" points="2207.63,758.882 2223.664,707.258 2239.697,758.882 		"/>
		<polygon clip-path="url(#SVGID_2_)" fill="#205128" points="2219.717,764.132 2235.751,712.508 2251.784,764.132 		"/>
		<polygon clip-path="url(#SVGID_2_)" fill="#6F8D3B" points="2234.717,769.077 2250.751,717.453 2266.784,769.077 		"/>
		<polygon clip-path="url(#SVGID_2_)" fill="#6F8D3B" points="2265.467,769.077 2281.501,717.453 2297.534,769.077 		"/>
		<polygon clip-path="url(#SVGID_2_)" fill="#6F8D3B" points="2251.784,767.811 2267.818,716.187 2283.852,767.811 		"/>
		<polygon clip-path="url(#SVGID_2_)" fill="#205128" points="2242.534,758.882 2258.568,707.258 2274.602,758.882 		"/>
		<polygon clip-path="url(#SVGID_2_)" fill="#6F8D3B" points="2281.501,766.212 2297.535,714.588 2313.568,766.212 		"/>
		<polygon clip-path="url(#SVGID_2_)" fill="#205128" points="2276.251,759.474 2292.285,707.85 2308.318,759.474 		"/>
		<polygon clip-path="url(#SVGID_2_)" fill="#205128" points="2297.534,761.696 2313.568,710.072 2329.602,761.696 		"/>
		<polygon clip-path="url(#SVGID_2_)" fill="#6F8D3B" points="2312.853,761.696 2328.887,710.072 2344.92,761.696 		"/>
		<polygon clip-path="url(#SVGID_2_)" fill="#205128" points="2286.853,769.077 2302.887,717.453 2318.92,769.077 		"/>
		<polygon clip-path="url(#SVGID_2_)" fill="#6F8D3B" points="2336.603,769.077 2352.637,717.453 2368.67,769.077 		"/>
		<polygon clip-path="url(#SVGID_2_)" fill="#205128" points="2354.103,761.696 2370.137,710.072 2386.17,761.696 		"/>
		<polygon clip-path="url(#SVGID_2_)" fill="#6F8D3B" points="2368.67,756.446 2384.704,704.822 2400.737,756.446 		"/>
		<polygon clip-path="url(#SVGID_2_)" fill="#205128" points="2383.17,761.696 2399.204,710.072 2415.237,761.696 		"/>
		<polygon clip-path="url(#SVGID_2_)" fill="#6F8D3B" points="2400.737,754.909 2416.771,703.285 2432.805,754.909 		"/>
		<polygon clip-path="url(#SVGID_2_)" fill="#6F8D3B" points="2324.737,771.659 2340.771,720.035 2356.805,771.659 		"/>
		<polygon clip-path="url(#SVGID_2_)" fill="#5F7332" points="1973.55,752.372 1989.584,700.748 2005.617,752.372 		"/>
		<polygon clip-path="url(#SVGID_2_)" fill="#1F5128" points="1887.804,744.8 1903.838,693.177 1919.871,744.8 		"/>
		<polygon clip-path="url(#SVGID_2_)" fill="#172D19" points="2041.296,780.72 2057.33,729.097 2073.363,780.72 		"/>
		<polygon clip-path="url(#SVGID_2_)" fill="#2E6733" points="1922.444,751.558 1936.905,697.59 1951.366,751.558 		"/>
		<polygon clip-path="url(#SVGID_2_)" fill="#2E6733" points="2004.206,768.982 2018.667,715.015 2033.128,768.982 		"/>
		<polygon clip-path="url(#SVGID_2_)" fill="#7A923B" points="1962.37,751.945 1978.139,701.175 1993.907,751.945 		"/>
		<polygon clip-path="url(#SVGID_2_)" fill="#7A923B" points="1984.29,754.482 2000.059,703.712 2015.827,754.482 		"/>
		<polygon clip-path="url(#SVGID_2_)" fill="#7A923B" points="2011.897,776.929 2027.666,726.158 2043.435,776.929 		"/>
		<polygon clip-path="url(#SVGID_2_)" fill="#1F5128" points="1904.103,749.127 1919.871,698.356 1935.64,749.127 		"/>
		<polygon clip-path="url(#SVGID_2_)" fill="#2E6733" points="1990.907,761.27 2006.676,710.499 2022.444,761.27 		"/>
		<polygon clip-path="url(#SVGID_2_)" fill="#2E6733" points="1948.897,750.386 1966.462,699.616 1984.025,750.386 		"/>
		<polygon clip-path="url(#SVGID_2_)" fill="#2E6733" points="2027.666,783.839 2045.23,733.069 2062.794,783.839 		"/>
		<polygon clip-path="url(#SVGID_2_)" fill="#1F5128" points="1935.598,744.944 1951.367,705.058 1967.135,744.944 		"/>
		<path clip-path="url(#SVGID_2_)" fill="#88A83E" d="M1544.5,831.583c0,0,113-79.5,135.5-87.5s15.75-1.875,31-12.75
			s41-0.625,47.125,1.875s13.625,1.75,22.25,0.75s17-0.5,25.625-3.125s20-15.625,41.125-14.375s16.625,4.875,38.375,5.75
			s45.5,1,54,0.375s19.125,0.75,25,3s10.25-2.125,15.875-1.875s21.625,10.25,31.5,11s16.542,18.125,27.792,22.625
			s39.5-8.666,48-10.666s9.666-12.209,24.666-14.334s32.75,7.875,36,7s3.209-10.708,7.334-11.333s7.291-3.633,18.666-4.258
			s0.167-14.159,21.917-1.659s30.25,18.5,47.5,19.75s12-2.25,19.25-2.75s29.75,6.25,40.25,6.5c4.833-0.5,5.249-2.749,7.583-2.916
			s9.083,4.583,16.083,5.333s12.917-9.917,17.584-10s12.625,12.333,17,12.083s7.75-3.375,11-3s54.667-32.583,97.5-5.583
			l-29.75,83.083l-6.25,25.75h-101h-823.834C1509.166,850.333,1534.963,838.249,1544.5,831.583z"/>
		<polygon clip-path="url(#SVGID_2_)" fill="#5C7835" points="1974.873,806.532 1990.907,754.908 2006.94,806.532 		"/>
		<polygon clip-path="url(#SVGID_2_)" fill="#1B4923" points="1967.991,806.532 1984.025,754.908 2000.059,806.532 		"/>
		<polygon clip-path="url(#SVGID_2_)" fill="#5C7835" points="1997.658,806.532 2013.692,754.908 2029.726,806.532 		"/>
		<polygon clip-path="url(#SVGID_2_)" fill="#1B4923" points="1988.172,802.01 2004.206,750.386 2020.239,802.01 		"/>
		<polygon clip-path="url(#SVGID_2_)" fill="#5C7835" points="2011.632,806.532 2027.666,754.908 2043.699,806.532 		"/>
		<polygon clip-path="url(#SVGID_2_)" fill="#517837" points="2081.843,802.01 2097.877,750.386 2113.91,802.01 		"/>
		<polygon clip-path="url(#SVGID_2_)" fill="#205128" points="2110.837,797.472 2126.871,745.848 2142.904,797.472 		"/>
		<polygon clip-path="url(#SVGID_2_)" fill="#5C7835" points="2094.803,809.165 2110.837,757.541 2126.87,809.165 		"/>
		<polygon clip-path="url(#SVGID_2_)" fill="#5C7835" points="2070.826,803.167 2086.86,751.543 2102.894,803.167 		"/>
		<polygon clip-path="url(#SVGID_2_)" fill="#5C7835" points="2057.33,806.531 2073.364,754.907 2089.397,806.531 		"/>
		<polygon clip-path="url(#SVGID_2_)" fill="#5C7835" points="2049.775,809.165 2065.81,757.541 2081.843,809.165 		"/>
		<polygon clip-path="url(#SVGID_2_)" fill="#5C7835" points="2144.353,792.024 2160.387,740.4 2176.42,792.024 		"/>
		<polygon clip-path="url(#SVGID_2_)" fill="#205128" points="2159.082,791.01 2175.116,739.386 2191.149,791.01 		"/>
		<polygon clip-path="url(#SVGID_2_)" fill="#67923E" points="2170.637,794.89 2186.671,743.266 2202.704,794.89 		"/>
		<polygon clip-path="url(#SVGID_2_)" fill="#5C7835" points="2183.97,787.509 2200.004,735.885 2216.037,787.509 		"/>
		<polygon clip-path="url(#SVGID_2_)" fill="#B1B349" points="2198.304,791.01 2214.338,739.386 2230.371,791.01 		"/>
		<polygon clip-path="url(#SVGID_2_)" fill="#5C7835" points="2214.337,795.998 2230.371,744.374 2246.404,795.998 		"/>
		<polygon clip-path="url(#SVGID_2_)" fill="#5C7835" points="2235.751,776.197 2251.785,744.374 2267.818,776.197 		"/>
		<polygon clip-path="url(#SVGID_2_)" fill="#205128" points="2226.5,776.197 2242.534,744.374 2258.567,776.197 		"/>
		<polygon clip-path="url(#SVGID_2_)" fill="#205128" points="2249.433,777.823 2265.467,746 2281.5,777.823 		"/>
		<polygon clip-path="url(#SVGID_2_)" fill="#205128" points="2265.581,782.124 2281.615,750.301 2297.648,782.124 		"/>
		<polygon clip-path="url(#SVGID_2_)" fill="#205128" points="2281.501,784.894 2297.535,753.07 2313.568,784.894 		"/>
		<polygon clip-path="url(#SVGID_2_)" fill="#5C7835" points="2294.479,782.124 2310.513,750.301 2326.546,782.124 		"/>
		<polygon clip-path="url(#SVGID_2_)" fill="#5C7835" points="2305.563,780.683 2321.597,748.859 2337.63,780.683 		"/>
		<polygon clip-path="url(#SVGID_2_)" fill="#1B4923" points="1950.428,797.472 1966.462,745.848 1982.495,797.472 		"/>
		<polygon clip-path="url(#SVGID_2_)" fill="#1B4923" points="1934.394,794.794 1950.428,743.17 1966.461,794.794 		"/>
		<polygon clip-path="url(#SVGID_2_)" fill="#5C7835" points="1912.84,797.472 1928.874,745.848 1944.907,797.472 		"/>
		<polygon clip-path="url(#SVGID_2_)" fill="#1B4923" points="1890.47,797.471 1906.504,745.847 1922.537,797.471 		"/>
		<polygon clip-path="url(#SVGID_2_)" fill="#5C7835" points="1874.437,802.01 1890.471,750.386 1906.504,802.01 		"/>
		<polygon clip-path="url(#SVGID_2_)" fill="#2E6733" points="1842.917,795.998 1858.951,744.374 1874.984,795.998 		"/>
		<polygon clip-path="url(#SVGID_2_)" fill="#2E6733" points="1824.251,790.583 1840.285,738.959 1856.318,790.583 		"/>
		<polygon clip-path="url(#SVGID_2_)" fill="#5C7835" points="1808.218,795.998 1824.252,744.374 1840.285,795.998 		"/>
		<polygon clip-path="url(#SVGID_2_)" fill="#2E6733" points="1792.184,792.024 1808.218,740.4 1824.251,792.024 		"/>
		<polygon clip-path="url(#SVGID_2_)" fill="#59833A" points="1776.149,803.995 1792.184,752.371 1808.217,803.995 		"/>
		<polygon clip-path="url(#SVGID_2_)" fill="#5C7835" points="1764.275,797.472 1780.31,745.848 1796.343,797.472 		"/>
		<line clip-path="url(#SVGID_2_)" fill="#5C7835" x1="1386.058" y1="776.397" x2="1353.99" y2="776.397"/>
		<path clip-path="url(#SVGID_2_)" fill="#2E6733" d="M1360.649,750.622"/>
		<line clip-path="url(#SVGID_2_)" fill="#2E6733" x1="1372.769" y1="771.917" x2="1348.528" y2="771.917"/>
		<path clip-path="url(#SVGID_2_)" fill="#2E6733" d="M1348.899,754.123"/>
		<line clip-path="url(#SVGID_2_)" fill="#2E6733" x1="1364.933" y1="775.418" x2="1332.865" y2="775.418"/>
		<polygon clip-path="url(#SVGID_2_)" fill="#5C7835" points="1233.298,787.312 1243.833,766.017 1254.366,787.312 		"/>
		<polygon clip-path="url(#SVGID_2_)" fill="#5C7835" points="1214.245,790.94 1224.779,769.646 1235.313,790.94 		"/>
		<polygon clip-path="url(#SVGID_2_)" fill="#5C7835" points="1173.347,794.678 1183.881,773.383 1194.415,794.678 		"/>
		<polygon clip-path="url(#SVGID_2_)" fill="#5C7835" points="1199.513,788.552 1210.048,767.257 1220.581,788.552 		"/>
		<polygon clip-path="url(#SVGID_2_)" fill="#5C7835" points="1448.125,790.582 1464.16,765.75 1480.193,790.582 		"/>
		<path clip-path="url(#SVGID_2_)" fill="#2E6733" d="M2645.449,833.129c0,0-21.968-28.105-177.449-44.518
			c-18.788-1.983-44.286-46.857-67.5-46.612c-33.043,0.35-67,34.001-127.305,17.093c-60.839-17.058-125.631,22.651-161.079,17.379
			c-25.495-3.792,2.384-26.221-82.667,4.313c-70.844,25.434-56-7.162-66-10.468c-10-3.307-40,10.106-58,6.154
			c-18-3.951-48.667,1.627-62,9.307s-22,9.953-41.333,0c-19.333-9.952-42.666-23.175-70-23.727
			c-27.333-0.551-54.667,24.107-105.333,36.296c-50.668,12.189-99.334,41.943-90,45.249c9.332,3.306,52.666,36.265,52.666,36.265
			l214.667-4.858l358,35.571l417.333-23.449l99.667-22.521L2645.449,833.129z"/>
		<path clip-path="url(#SVGID_2_)" fill="#427337" d="M1789.25,866.61v2.22H921v-2.22c2.1-0.801,21.19-9.841,46.6-20.62
			c38.7-16.41,92.06-36.84,122.44-38.3c50.34-2.431,60.41-17.36,89.02-22.2c28.62-4.84,33.39-5.05,51.67-5.05
			s26.5-14.931,42.39-14.53c15.9,0.41,22.79,5.649,28.62,5.25c5.83-0.4,0.79-4.24,6.09-4.24c5.3,0,21.33,1.41,31.4,0.2
			s15.76-11.601,24.24-7.561c3.18,1.511,8.52,1.681,14.37,1.381c0.42-0.021,0.85-0.04,1.28-0.07c0.44-0.03,1.73-0.14,3.5-0.29
			c6.14-0.5,18.12-1.45,20.99-0.82c7.82,1.71,16.83,9.99,26.23,2.82c3.84-2.521,12.19,0.61,21.99,2.22
			c9.81,1.62,12.85-0.1,28.88,3.641c16.03,3.729,19.74,4.84,41.2,4.64c5.43-0.3,14.84,6.25,42,7.26s68.22,18.061,94.189,26.94
			c25.96,8.88,79.221,26.84,86.37,35.52c7.16,8.681,5.57,10.9,24.641,14.73C1788.19,861.37,1789.25,866.61,1789.25,866.61z"/>
		<path clip-path="url(#SVGID_2_)" fill="#517C46" d="M1382.62,760.58l-4.74,6.74l-23.89,15.16l-5.46,10.27l-5.91,20.76
			l-21.24,10.74l-5.13,13.13l-18.94,14.95l-66.69,10.17L1082,864.74l-111.41-4.24l-2.99-14.51c38.7-16.41,92.06-36.84,122.44-38.3
			c50.34-2.431,60.41-17.36,89.02-22.2c28.62-4.84,33.39-5.05,51.67-5.05s26.5-14.931,42.39-14.53c15.9,0.41,22.79,5.649,28.62,5.25
			c5.83-0.4,0.79-4.24,6.09-4.24c5.3,0,21.33,1.41,31.4,0.2s15.76-11.601,24.24-7.561c3.18,1.511,8.52,1.681,14.37,1.381
			c0.42-0.021,0.85-0.04,1.28-0.07C1379.56,760.84,1380.85,760.73,1382.62,760.58z"/>
		<path clip-path="url(#SVGID_2_)" fill="#2E6733" d="M68.493,627.995c0,0,62.997-6.552,110.995-22.468
			c47.998-15.917,36.853-21.602,47.853-20.568c11,1.032,22.5,1.916,33,7.664c10.5,5.749,23,6.337,33.5,3.831
			c10.5-2.505,21-8.695,28.5-8.253s20.5,0,27.5,5.748c7,5.749,15,9.903,26.5,12.469s23-0.797,27,0s14.211-0.53,22.355,8.313
			c8.145,8.843,18.145,13.706,30.145,18.57c12,4.862,33,9.727,41.5,14.591c8.5,4.863,14,17.686,20,24.318
			c6,6.632,12.5,11.054,22,16.802c9.5,5.747,18,4.421,25,18.57s23,29.434,32.5,32.403c9.5,2.969,21.5,6.064,30.5,16.233
			s29.5,37.582,40,41.12c10.5,3.537,21,3.537,36,0c15-3.538,21.5-10.612,29.5,2.652c8,13.266-0.5,22.992,16,30.509
			s32,10.464,44.5,14.96c12.5,4.494,31,15.549,35.5,19.086h-743L68.493,629.764"/>
		<path clip-path="url(#SVGID_2_)" fill="#1B4923" d="M2078.586,858.833c0,0-20.621-40.894-53.288-48.628
			c-32.667-7.733-50.667-15.745-75.334-10.531c-24.666,5.214-32.666-4.936-54-11.22c-21.333-6.284-37.666-29.002-68.833-27.068
			s0.167,15.467-49.833,29.001s-62,8.701-78.667,6.284c-16.667-2.416-6-18.247-36-2.356s-43.333,5.256-60.667,3.323
			c-17.333-1.934-18.666,13.051-40,23.201c-21.333,10.15-57.333,10.15-71.333,18.609s-28.667,19.886-40.667,19.247L2078.586,858.833
			z"/>
		<path clip-path="url(#SVGID_2_)" fill="#4C9944" d="M932,279.667"/>
		<g clip-path="url(#SVGID_2_)">
			<path fill="#1D3F21" d="M1333.625,852.334c0,0-53.619-2.92-133.578-19.078c-79.958-16.162-70.551-26.191-132.636-7.246
				c-62.085,18.946-88.425,14.566-122.289,11.463c-33.864-3.104-135.459-1.165-146.747,14.861H1333.625z"/>
		</g>
		<g clip-path="url(#SVGID_2_)">
			<path fill="#1D3F21" d="M1230.625,850.62c0,0,63.762-3.602,158.845-23.539c95.083-19.938,83.898-32.313,157.727-8.938
				c73.83,23.375,105.15,17.972,145.422,14.142c40.271-3.829,161.082-1.437,174.506,18.336H1230.625z"/>
		</g>
		<linearGradient id="SVGID_16_" gradientUnits="userSpaceOnUse" x1="1470.0205" y1="850.3301" x2="1470.0205" y2="1080">
			<stop  offset="0" style="stop-color:#9FDBEC"/>
			<stop  offset="0.2361" style="stop-color:#79CBE3"/>
			<stop  offset="0.7529" style="stop-color:#00B1D7"/>
			<stop  offset="1" style="stop-color:#00A8D3"/>
		</linearGradient>
		<rect x="507" y="850.33" clip-path="url(#SVGID_2_)" fill="url(#SVGID_16_)" width="1926.04" height="229.67"/>
		<path clip-path="url(#SVGID_2_)" fill="#67923E" d="M2323.931,892.342c0,0-128,5.905-215.333,39.068
			c-87.333,33.162,34.667,54.489,107.667,47.193c73-7.297,121.666-34.234,121.666-34.234l5.334-22.808L2323.931,892.342z"/>
		<linearGradient id="SVGID_17_" gradientUnits="userSpaceOnUse" x1="1043.9927" y1="861.2266" x2="1109.5625" y2="974.7968">
			<stop  offset="0" style="stop-color:#E0F2EF"/>
			<stop  offset="1" style="stop-color:#ADDFEF"/>
		</linearGradient>
		<path clip-path="url(#SVGID_2_)" fill="url(#SVGID_17_)" d="M1124.167,966.364c0,0-74.667-35.864-24.667-41.864
			c31.333-4,17.5-11.833-9.5-17.833c-27.166-6.037-11.333-22.001,15.333-22.334s48.667-8,20.333-14s-16.333-9.666,11-10.666v-7.333
			H1078c0,0-48,4.139-23,12.402s15.667,11.263-3,11.597s-64.167,3.333-17.75,22c46.417,18.667-4.963,15.72-21.917,19.334
			c-39.083,8.333-30,28.334,25.333,40s53.667,8.223,53.667,8.223L1124.167,966.364z"/>
		<linearGradient id="SVGID_18_" gradientUnits="userSpaceOnUse" x1="1404.29" y1="850.334" x2="1404.29" y2="1069.9229">
			<stop  offset="0" style="stop-color:#DBF0EF"/>
			<stop  offset="0.2734" style="stop-color:#C7E8EF"/>
			<stop  offset="1" style="stop-color:#93D7ED"/>
		</linearGradient>
		<path clip-path="url(#SVGID_2_)" fill="url(#SVGID_18_)" d="M1244.707,1047.641c-8.172-4.384,234.8-59.141,113.971-88.641
			c-81.382-19.869-19.931-33.456,1.954-34.25c23.236-0.843,85.368-4,39.734-19.25c-45.531-15.216-10.422-22.781,9.77-24.641
			c20.193-1.859,33.003-8.692,19.108-15.603c-12.03-5.982-53.304-8.631,27.791-14.923c0,0-14.343,0.068,15.417,0.667
			c29.759,0.599,24.317,7.499,2.822,8.999c-21.496,1.5-5.537,11.75,11.399,14.75c16.935,3,72.628,5.25,19.54,16
			c-53.086,10.75-51.784,12.5-42.665,13.75c9.12,1.25,101.94,5,60.903,23.75c-41.036,18.75-83.864,14.832-66.276,34.916
			c17.587,20.084,106.282,21.667,58.948,37.501c-47.333,15.834-50.644,9.917,46.953,51
			C1564.076,1051.667,1333.57,1095.308,1244.707,1047.641z"/>
		<linearGradient id="SVGID_19_" gradientUnits="userSpaceOnUse" x1="1788.9707" y1="862.8633" x2="1877.9819" y2="1017.0353">
			<stop  offset="0" style="stop-color:#E0F2EF"/>
			<stop  offset="1" style="stop-color:#ADDFEF"/>
		</linearGradient>
		<path clip-path="url(#SVGID_2_)" fill="url(#SVGID_19_)" d="M1951.481,974.266c4.318-3.102-140.464-24.882-76.61-45.755
			c43.007-14.059,10.532-23.672-1.033-24.233c-12.279-0.597-44.061,0.53-20.997-13.62c23.063-14.151,5.507-16.119-5.164-17.435
			c-10.67-1.316-17.44-6.15-10.097-11.04c6.357-4.232,28.169-6.106-14.687-10.559c0,0,7.579,0.049-8.147,0.472
			c-15.727,0.424-12.851,5.307-1.491,6.367c11.359,1.062,2.926,8.314-6.023,10.437c-8.95,2.123-38.381,3.715-10.327,11.321
			c28.054,7.605,27.366,8.844,22.547,9.729s-53.871,3.538-32.185,16.805c21.686,13.267,44.318,10.494,35.024,24.705
			c-9.294,14.21-56.167,15.33-31.152,26.533c25.014,11.203,26.763,7.017-24.813,36.085
			C1766.326,994.077,1904.521,1007.993,1951.481,974.266z"/>
		<path clip-path="url(#SVGID_2_)" fill="#67923E" d="M955.506,1055.667c24.176,4.083,264.895-36.503,321.994-70.417
			c27.082-16.085-256.939-37.967-297.5-39.645c-75.572-3.126-13.052-12.453-31.062-26.188C932,906.5,681.388,873.489,367.333,850.33
			c-402.906-29.712,79.643,125.368,79.643,125.368l-64,41.834l50,44l69.538,34.884l287.947-20.641
			C790.461,1075.775,879.506,1042.832,955.506,1055.667z"/>
		<path clip-path="url(#SVGID_2_)" fill="#67923E" d="M570.237,850.33c0,0,216.469,21.023,467.458,11.576
			c254.306-9.572,367.878-0.519,405.845,5.113c37.966,5.635,90.919-9.384,324.676-3.536C2143.339,872.867,2764,909.35,2250,850.33
			H570.237z"/>
		<path clip-path="url(#SVGID_2_)" fill="#1D3F21" d="M456.663,765.154c0,0,37.001-21.418,57.001-7.085s23,26.333,47,22.333
			s54.397,41.29,65,62s63.936,72.799,63.936,72.799l-189.936-11.799l-105-21.578l36-94.422L456.663,765.154z"/>
		<linearGradient id="SVGID_20_" gradientUnits="userSpaceOnUse" x1="923.8491" y1="1128.4668" x2="729.5479" y2="791.9271">
			<stop  offset="0" style="stop-color:#FAE2B4"/>
			<stop  offset="0.2579" style="stop-color:#F7DDAD"/>
			<stop  offset="0.6543" style="stop-color:#F0D19A"/>
			<stop  offset="1" style="stop-color:#E9C486"/>
		</linearGradient>
		<path clip-path="url(#SVGID_2_)" fill="url(#SVGID_20_)" d="M995.962,1021.344c0,0,231.55-41.309-19.831-52.582
			c-200.181-8.978-142.253-35.25-122.92-35.855s-167.333-38.324-262-37.798s-23.25,16.385-23.25,16.385l45.25,38.808l87.662,82
			l90.338,23.334l177.333,9.333l93-16L995.962,1021.344z"/>
		
			<linearGradient id="SVGID_21_" gradientUnits="userSpaceOnUse" x1="2127.5859" y1="953.7832" x2="2436.5898" y2="953.7832" gradientTransform="matrix(0.9924 -0.1231 0.1231 0.9924 -102.2967 289.5733)">
			<stop  offset="0" style="stop-color:#FAE2B4"/>
			<stop  offset="0.2579" style="stop-color:#F7DDAD"/>
			<stop  offset="0.6543" style="stop-color:#F0D19A"/>
			<stop  offset="1" style="stop-color:#E9C486"/>
		</linearGradient>
		<path clip-path="url(#SVGID_2_)" fill="url(#SVGID_21_)" d="M2302.452,899.073c0,0-376.89,56.676-36.057,82.993
			c340.833,26.316,73.208-19.08,73.208-19.08l0.153-31.257L2302.452,899.073z"/>
		<path clip-path="url(#SVGID_2_)" fill="#1D3F21" d="M2427.206,849.236c0,0-33.252-64.004-72.123-54.979
			s-42.037,25.254-111.457,5.616s-139.385-17.044-153.902,7.909s-64.224,27.132-64.224,41.841s138.369-3.998,174,9.209
			c36.5,13.529,246.501,37.04,246.501,37.04L2427.206,849.236z"/>
		<path clip-path="url(#SVGID_2_)" fill="#255429" d="M845.333,1006.333c0,0-92.923-97.114-188.865-125.612
			c-95.941-28.498-126.84-59.493-151.04-91.993c-10.624-14.267-114.122-285.555-156.762-494.625
			C327.065,188.186-15.682-216.688-73.331-49.376C-141.936,149.732,78.306,812.76,45.162,850.33
			C-134.974,1054.52,68.493,1080,68.493,1080l178.754,18.21l182.003,7.5L905.333,1119L845.333,1006.333z"/>
		<path clip-path="url(#SVGID_2_)" fill="#1B4923" d="M2464.353,812.752c0,0-37.001-21.418-57.001-7.085s-23,26.333-47,22.333
			s-58.148,33-65,62s6,61,6,61h120l105-21.578l-36-94.422L2464.353,812.752z"/>
		<path clip-path="url(#SVGID_2_)" fill="#1D3F21" d="M-92-119c0,0,230.992,129.344,258,312
			c27.008,182.657,35.682,317.769,97.126,372.297C324.572,619.825,434.125,842.719,448,908.334
			c13.875,65.618,57.732,133.108,59,171.666l-406.823,1.311h-331.904h-119.787v-1135.4L-92-119z"/>
		<path clip-path="url(#SVGID_2_)" fill="#255429" d="M2441.225,861.728c10.623-14.267,69.419-299.946,156.762-494.625
			c117.543-261.991,338.881-565.119,396.529-397.808c68.605,199.109-126.169,916.464-93.025,954.035
			c180.137,204.189-23.33,229.67-23.33,229.67l-178.755,18.21l-182.003,7.5l-206.891-19.15c0,0-12.541-28.564,46.293-98.56
			C2420.775,984.893,2428.618,878.657,2441.225,861.728z"/>
		<path clip-path="url(#SVGID_2_)" fill="#1D3F21" d="M3159.621-76.356c0,0-354.07,88.782-381.079,274.722
			c-27.009,185.94-68.571,328.285-130.017,383.794s-250.935,281.234-264.811,348.03c-13.875,66.797-76.309,138.01-77.576,177.261
			h505.336h331.904h119.787V-48.362L3159.621-76.356z"/>
		<path clip-path="url(#SVGID_2_)" fill="#1D3F21" d="M318,794c0,0,237.017,157.937,260.092,158.306
			C601.167,952.676,684,933.667,689,987.061c4.532,48.398,183.326,6.299,236.23,7.648s147.108,15.64,184.878,9.03
			c49.892-8.73,38.941,5.975,127.493,25.646c147.732,32.815,292.485-34.228,395.98-33.649c103.495,0.58,250.488,0,334.483,0
			s57.707-29.823,145.848-29.823s137.638-8.101,137.638-16.519s2.142-19.584,193.062-9.277V1080H436.642L318,794z"/>
		<path clip-path="url(#SVGID_2_)" fill="#54803A" d="M1854.12,555.04"/>
		<path clip-path="url(#SVGID_2_)" fill="#497A3C" d="M1537.125,800.066c6.23,7.434,6.029-7.223,15.865-2.749
			c9.837,4.473,25.363-1.138,25.363-1.138s-33.739-9.336-62.737-13.819c-28.997-4.484-49.72-5.398-23.196,2.57
			C1492.42,784.931,1525.75,786.494,1537.125,800.066z"/>
		<path clip-path="url(#SVGID_2_)" fill="#889E44" d="M1130,789.5c0,0-31.5-40.5-58-41.5c0,0,24.5,12.5,29,26c0,0-20.5-25.5-54.5-26
			c0,0,34.5,10.707,49.5,37.354c0,0-54.5-38.354-74-37.354c0,0,27,36.709,41,39.667s26.333-2,29.667,5.333
			S1121.297,779.138,1130,789.5z"/>
		<path clip-path="url(#SVGID_2_)" fill="#889E44" d="M946.577,764.318c0,0,29.487,32.271,48.553,29.545
			c0,0-19.636-7.937-25.188-19.517c0,0,19.042,20.229,43.367,16.022c0,0-26.454-4.946-41.774-26.963c0,0,45.512,27.182,59.24,23.606
			c0,0-20.386-11.981-36.116-30.219c0,0-18.426,5.415-22.075-0.753S954.579,772.486,946.577,764.318z"/>
		<path clip-path="url(#SVGID_2_)" fill="#889E44" d="M938.945,754.145c0,0-58.122-11.649-71.354-14.426s-20.232-4.376-39.899,0
			c0,0,22.801-5.249,64.9,12.002c0,0-53.435-4.834-59.195-6.993c0,0,8.548,4.541,39.421,9.417s56.206,18.172,64.873,26.295
			c0,0-7.372-18.033-29-23.632C908.692,756.808,922.743,759.191,938.945,754.145z"/>
		<path clip-path="url(#SVGID_2_)" fill="#889E44" d="M653.543,781.27c0,0,31.5-40.5,58-41.5c0,0-24.5,12.5-29,26
			c0,0,20.5-25.5,54.5-26c0,0-34.5,10.707-49.5,37.354c0,0,54.5-38.354,74-37.354c0,0-24.461,16.972-41,39.667
			c0,0-26.333-2-29.667,5.333S662.246,770.907,653.543,781.27z"/>
		<path clip-path="url(#SVGID_2_)" fill="#889E44" d="M833.188,760.038c0,0-29.487,32.271-48.553,29.545
			c1.388-0.534,30.476-14.382,23.365-25.299c0,0-17.218,26.012-41.543,21.805c0,0,17.89-3.431,33.21-25.447
			c0,0-36.948,25.666-50.676,22.091c0,0,26.368-16.292,42.099-34.529c0,0,14.411-5.203,16.093,3.558
			C808.533,758.799,825.186,768.206,833.188,760.038z"/>
		<path clip-path="url(#SVGID_2_)" fill="#618758" d="M1197.434,808.423c-6.23,7.434-6.029-7.223-15.865-2.749
			c-9.837,4.473-25.363-1.138-25.363-1.138s33.739-9.336,62.737-13.819c28.997-4.484,49.72-5.398,23.196,2.57
			C1242.139,793.287,1208.809,794.851,1197.434,808.423z"/>
		<path clip-path="url(#SVGID_2_)" fill="#3D713C" d="M1767.688,776.167c10.066-0.069-32.42-20.949-69.851-2.021
			c-6.74,4.491-2.276,9.937,10.917,1.439c13.194-8.497,24.955-7.972,17.488,0c-7.468,7.971,0.361,10.612,8.972-1.252
			S1757.623,776.236,1767.688,776.167z"/>
		<path clip-path="url(#SVGID_2_)" fill="#97B24F" d="M1999.658,736.662c0,0-0.314-4.133-9.486-4.564s-7.739-5.31-14.622-2.537
			s-9.357,4.3-17.287,2.536s-9.93-4.614-17.93-4.522s-10.591-0.759-18.462,0s-6.862,2.409-16.033,1.584s-11.171-0.156-18.171-1.157
			s-7.333-0.183-13-1.259s-7.096-1.621-13.715-2.182s-16.049-3.584-18.667-2.572s-5.124,1.389-12.285,2.572
			s-3.333,1.423-8.333,4.598s-7.667,7.647,1.333,6.911s10.868-5.281,14.768-6.509s5.898-4.244,9.565-0.402s0.001,3.98,8.334,6.911
			s7.916,8.034,13.458,2.815s6.208-6.885,10.208-4.552s-1.684,2.104,5.825,4.552s6.841,5.052,11.175,2.25s-0.334-4.996,8-5.065
			s4.68-1.745,10.507,0.593s2.567,3.338,9.697,3.338s4.583-3.23,11.856-1.115s9.463,4.145,13.701,3.463s-4.934-2.244,5.819-3.463
			s9.085-7.227,16.419-2.223s0.324,4.806,12.162,6.738s15.622,5.596,17.563,1.598s1.267-4.895,0.438-6.113
			S1999.658,736.662,1999.658,736.662z"/>
		<path clip-path="url(#SVGID_2_)" fill="#97B24F" d="M1758.75,738.959c0,0-23.834-8.209-34.417-6.709s-9.083,5.801-18.083,8.15
			s-16.5,4.854-24.75,8.727s-12.5,4.639-19,9.006s-10.75,3.793-15.75,8.08s-16.25,9.521-6.75,9.154s8.25,0.098,13.5-6.385
			s11-8.762,17.25-9.372s6.5-2.407,12.75-5.884s4.809-4.723,14.029-4.6s10.221,0.723,14.971-4.327s5.083-6.841,11.833-3.55
			s8.167,1.301,12.417-0.85s2.5-4.732,6.75-1.441S1771.75,745.668,1758.75,738.959z"/>
		<path clip-path="url(#SVGID_2_)" fill="#497A3C" d="M1457,776.752c-18.833-6.812-27.84,1.61-36.586-3.43
			S1383,773.769,1374,781.551s16,0.314,27-2.842c11-3.155,21.334,4.786,33.167,3.367S1475.833,783.563,1457,776.752z"/>
		<path clip-path="url(#SVGID_2_)" fill="#618758" d="M1328.815,785.311c10.189,1.364-1.05-0.092,12.697-8.602
			c13.747-8.51-22.324,2.087-51.121,5.063c-28.795,2.975-14.349,6.357-4.279,5.063
			C1295.899,785.577,1318.362,783.914,1328.815,785.311z"/>
	</g>
</g>
</svg>
